<?xml version="1.0" encoding="utf-8"?><svg version="1.1" id="Layer_1" xmlns="http://www.w3.org/2000/svg" xmlns:xlink="http://www.w3.org/1999/xlink" x="0px" y="0px" viewBox="0 0 122.88 70.36" style="enable-background:new 0 0 122.88 70.36" xml:space="preserve"><g><path d="M97.85,14.17c-0.02,0.19-0.08,0.37-0.17,0.55c-0.1,0.42-0.15,0.9-0.15,1.43c0,0.05,0.01,0.1,0.01,0.15v34.74 c0.44,1.09,0.98,1.91,1.63,2.42c0.6,0.48,1.34,0.71,2.24,0.67c0.06-0.01,0.13-0.01,0.19-0.01h9.96v0c0.02,0,0.05,0,0.08,0 c1.55,0.08,2.67-0.34,3.42-1.2c0.85-0.98,1.34-2.55,1.51-4.66l0,0l0-0.03l3.03-31.34c0-0.05,0-0.1,0.01-0.15 c0.21-1.78-0.18-2.94-1.06-3.62c-1.01-0.78-2.68-1.1-4.85-1.1c-0.05,0-0.1,0.01-0.15,0.01h-11.22v-0.01 c-1.71,0-2.97,0.34-3.74,1.04C98.27,13.35,98.03,13.72,97.85,14.17L97.85,14.17z M86.87,52.6c-0.24-0.23-0.41-0.53-0.48-0.86 l-16-28.8c-1.78-2.97-3.38-3.04-4.93-2.12c-1.1,0.65-2.26,1.71-3.42,2.77c-0.7,0.64-1.4,1.28-1.99,1.77l-2.75,2.27l0,0l-0.02,0.01 c-2,1.61-4.26,2.48-6.4,2.65c-1.41,0.12-2.77-0.06-4.01-0.53c-1.27-0.48-2.39-1.25-3.23-2.3c-0.91-1.13-1.51-2.57-1.65-4.27l0.01,0 c-0.03-0.41,0.09-0.82,0.37-1.16l8.74-10.4c-1.84-0.03-3.47,0.22-5,0.7c-2.33,0.73-4.51,1.99-6.89,3.62 c-0.27,0.21-0.62,0.34-0.99,0.34H28.16v19.03l0.04,12.17h5.86v0c0.56,0,1.1,0.29,1.39,0.81l7.28,12.69c1.06,1.85,2,3.45,3.17,4.5 c1.1,0.99,2.54,1.6,4.76,1.66c0.83,0.02,1.63-0.12,2.38-0.43c0.46-0.19,0.92-0.45,1.37-0.78l-4.72-8.82 c-0.42-0.78-0.12-1.75,0.66-2.16c0.78-0.42,1.75-0.12,2.16,0.66l5.13,9.59c1.91,0.97,3.64,1.27,5.19,0.94 c1.42-0.31,2.76-1.16,4.02-2.54l-7.39-11.6c-0.47-0.74-0.26-1.73,0.49-2.21c0.74-0.47,1.73-0.26,2.21,0.49l7.78,12.22 c1.37,0.56,2.68,0.68,3.93,0.34c1.19-0.33,2.39-1.09,3.58-2.33l-7.05-13.28c-0.42-0.78-0.12-1.76,0.67-2.17 c0.78-0.42,1.76-0.12,2.17,0.67l7.3,13.74c0.95,0.55,2.05,0.69,3.1,0.52c0.92-0.15,1.81-0.55,2.54-1.12 c0.7-0.56,1.25-1.28,1.51-2.1c0.29-0.89,0.26-1.93-0.21-3.06L86.87,52.6L86.87,52.6z M88.99,49.82h5.34V16.3 c0-0.04,0-0.09,0.01-0.13c0-0.52,0.03-1.02,0.1-1.49L89,11.07c-0.03-0.02-0.06-0.04-0.09-0.06c-0.71-0.47-1.56-1.07-2.41-1.67 c-3.09-2.16-6.26-4.39-9.69-5.29c-1.85-0.49-3.99-0.81-6.17-0.85c-1.91-0.04-3.85,0.14-5.68,0.62c-1.09,0.28-2.15,0.67-3.13,1.19 c-0.87,0.46-1.68,1.02-2.4,1.7l-3.64,4.33c-0.11,0.22-0.27,0.4-0.46,0.55L45.29,23.55c0.15,0.76,0.45,1.4,0.86,1.92 c0.48,0.59,1.12,1.03,1.85,1.31c0.78,0.29,1.68,0.4,2.62,0.32c1.53-0.13,3.17-0.76,4.64-1.94l0,0l2.75-2.27 c0.7-0.58,1.29-1.12,1.88-1.65c1.29-1.18,2.57-2.35,3.93-3.16c3.13-1.87,6.25-1.93,9.33,3.24l0.03,0.05L88.99,49.82L88.99,49.82z M94.93,53.03h-4.27c0.58,1.69,0.55,3.29,0.09,4.71c-0.47,1.46-1.39,2.7-2.57,3.64c-1.15,0.91-2.55,1.54-4.02,1.78 c-1.43,0.24-2.93,0.11-4.33-0.47c-1.62,1.69-3.33,2.76-5.11,3.25c-1.79,0.49-3.6,0.39-5.43-0.25c-1.74,1.93-3.66,3.14-5.78,3.59 c-2.16,0.47-4.45,0.14-6.88-1c-0.76,0.59-1.55,1.06-2.38,1.4c-1.17,0.49-2.4,0.71-3.69,0.67c-3.08-0.09-5.15-1-6.8-2.48 c-1.58-1.41-2.63-3.21-3.83-5.29l-6.81-11.88h-5.28c-0.31,1.53-0.84,2.83-1.64,3.87c-1.35,1.74-3.32,2.66-6.06,2.6 c-0.03,0-0.06,0-0.09,0h-9.05c-2.28,0.37-4.23-0.19-5.76-1.96c-1.36-1.57-2.28-4.12-2.68-7.86c-0.01-0.04-0.01-0.09-0.02-0.14 l-2.38-29.5c-0.47-3.18,0.05-5.43,1.33-6.97c1.29-1.55,3.24-2.25,5.63-2.36c0.07-0.01,0.13-0.01,0.2-0.01h12.19v0.01 c2.3-0.03,4.28,0.36,5.78,1.33c1.21,0.78,2.08,1.88,2.52,3.38h9.93c2.5-1.68,4.83-3,7.41-3.81c2.54-0.79,5.25-1.07,8.5-0.68 L57,4.64c0.06-0.08,0.12-0.15,0.2-0.22c0.95-0.9,2.01-1.64,3.15-2.24c1.2-0.63,2.48-1.11,3.82-1.46C66.29,0.17,68.52-0.04,70.7,0 c2.47,0.05,4.87,0.41,6.94,0.95C81.6,2,85.02,4.39,88.34,6.72c0.74,0.52,1.48,1.04,2.36,1.62c0.03,0.02,0.06,0.04,0.09,0.06 l4.82,3.22c0.24-0.34,0.52-0.65,0.84-0.93c1.38-1.24,3.35-1.85,5.89-1.85V8.83h11.22c0.04,0,0.09,0,0.13,0.01 c2.87-0.01,5.21,0.51,6.83,1.76c1.8,1.39,2.65,3.5,2.29,6.53c0,0.03-0.01,0.05-0.01,0.08l-3.03,31.31l0,0 c-0.22,2.8-0.97,4.99-2.29,6.51c-1.41,1.62-3.36,2.42-5.92,2.31v0h-9.96h-0.01c-1.72,0.09-3.19-0.38-4.42-1.36 C96.27,55.25,95.52,54.27,94.93,53.03L94.93,53.03z M14,40.86c1.2,0,2.17,0.97,2.17,2.17c0,1.2-0.97,2.17-2.17,2.17 c-1.2,0-2.17-0.97-2.17-2.17C11.83,41.83,12.8,40.86,14,40.86L14,40.86z M108.45,40.86c1.2,0,2.17,0.97,2.17,2.17 c0,1.2-0.97,2.17-2.17,2.17c-1.2,0-2.17-0.97-2.17-2.17C106.28,41.83,107.25,40.86,108.45,40.86L108.45,40.86z M24.95,31.62 l-0.06-16.93c0-0.03,0-0.06,0-0.1c-0.17-1.06-0.63-1.77-1.31-2.21c-0.93-0.6-2.32-0.83-4.03-0.81h-0.02v0.01H7.33 c-0.02,0-0.04,0-0.06,0c-1.51,0.07-2.66,0.43-3.31,1.21c-0.7,0.83-0.94,2.27-0.61,4.5c0.01,0.05,0.01,0.09,0.01,0.14l2.38,29.53 l0,0.05c0.32,3.06,0.98,5.02,1.91,6.1c0.74,0.86,1.75,1.1,2.96,0.88c0.09-0.02,0.19-0.03,0.28-0.03v-0.01h9.15 c0.06,0,0.12,0,0.17,0.01c1.62,0.03,2.74-0.45,3.44-1.36c0.82-1.06,1.22-2.72,1.28-4.86h-0.01V31.62L24.95,31.62z M73.18,21.36 L73.18,21.36L73.18,21.36L73.18,21.36z"/></g></svg>