<?xml version="1.0" encoding="utf-8"?><svg version="1.1" id="Layer_1" xmlns="http://www.w3.org/2000/svg" xmlns:xlink="http://www.w3.org/1999/xlink" x="0px" y="0px" viewBox="0 0 115.28 122.88" style="enable-background:new 0 0 115.28 122.88" xml:space="preserve"><style type="text/css">.st0{fill-rule:evenodd;clip-rule:evenodd;}</style><g><path class="st0" d="M25.38,57h64.88V37.34H69.59c-2.17,0-5.19-1.17-6.62-2.6c-1.43-1.43-2.3-4.01-2.3-6.17V7.64l0,0H8.15 c-0.18,0-0.32,0.09-0.41,0.18C7.59,7.92,7.55,8.05,7.55,8.24v106.45c0,0.14,0.09,0.32,0.18,0.41c0.09,0.14,0.28,0.18,0.41,0.18 c22.78,0,58.09,0,81.51,0c0.18,0,0.17-0.09,0.27-0.18c0.14-0.09,0.33-0.28,0.33-0.41v-11.16H25.38c-4.14,0-7.56-3.4-7.56-7.56 V64.55C17.82,60.4,21.22,57,25.38,57L25.38,57z M29.63,67.95h12.79c2.79,0,4.87,0.66,6.26,1.99c1.38,1.33,2.08,3.21,2.08,5.66 c0,2.51-0.76,4.48-2.27,5.9c-1.51,1.42-3.82,2.13-6.93,2.13h-4.22v9.21h-7.71V67.95L29.63,67.95z M37.35,78.58h1.89 c1.49,0,2.54-0.26,3.14-0.78c0.6-0.52,0.9-1.18,0.9-1.98c0-0.78-0.26-1.44-0.79-1.99c-0.52-0.54-1.51-0.82-2.95-0.82h-2.2V78.58 L37.35,78.58z M52.92,84.6l7.3-0.46c0.16,1.18,0.48,2.08,0.97,2.7c0.79,1,1.92,1.51,3.39,1.51c1.09,0,1.94-0.25,2.53-0.77 c0.6-0.52,0.89-1.11,0.89-1.79c0-0.64-0.28-1.22-0.84-1.73c-0.56-0.51-1.87-0.98-3.93-1.44c-3.37-0.75-5.77-1.76-7.2-3.02 c-1.45-1.25-2.17-2.85-2.17-4.79c0-1.27,0.37-2.48,1.11-3.61c0.74-1.14,1.85-2.03,3.34-2.68c1.49-0.65,3.53-0.97,6.12-0.97 c3.18,0,5.6,0.59,7.27,1.78c1.67,1.18,2.66,3.06,2.98,5.65l-7.23,0.43c-0.19-1.13-0.6-1.95-1.21-2.46 c-0.62-0.52-1.47-0.77-2.55-0.77c-0.89,0-1.57,0.19-2.02,0.57c-0.45,0.38-0.68,0.84-0.68,1.38c0,0.39,0.19,0.75,0.55,1.07 c0.35,0.33,1.21,0.63,2.57,0.92c3.36,0.72,5.76,1.46,7.21,2.2c1.45,0.74,2.51,1.66,3.17,2.76c0.66,1.09,0.99,2.32,0.99,3.68 c0,1.59-0.44,3.06-1.32,4.41c-0.89,1.34-2.11,2.37-3.7,3.06c-1.58,0.69-3.57,1.04-5.98,1.04c-4.23,0-7.16-0.82-8.78-2.44 C54.06,89.17,53.14,87.11,52.92,84.6L52.92,84.6z M78.92,67.95h11.43c2.25,0,4.07,0.31,5.46,0.92c1.38,0.61,2.53,1.49,3.44,2.63 c0.9,1.15,1.56,2.47,1.96,3.99c0.41,1.52,0.61,3.12,0.61,4.82c0,2.66-0.3,4.72-0.91,6.18c-0.6,1.47-1.44,2.69-2.52,3.68 c-1.08,0.99-2.23,1.65-3.46,1.98c-1.69,0.45-3.21,0.68-4.58,0.68H78.92V67.95L78.92,67.95z M86.6,73.58v13.59h1.89 c1.61,0,2.76-0.18,3.44-0.53c0.68-0.36,1.21-0.98,1.6-1.86c0.39-0.89,0.58-2.33,0.58-4.32c0-2.63-0.43-4.44-1.29-5.41 c-0.86-0.97-2.29-1.46-4.29-1.46H86.6L86.6,73.58z M97.79,57h9.93c4.16,0,7.56,3.41,7.56,7.56v31.42c0,4.15-3.41,7.56-7.56,7.56 h-9.93v13.55c0,1.61-0.65,3.04-1.7,4.1c-1.06,1.06-2.49,1.7-4.1,1.7c-29.44,0-56.59,0-86.18,0c-1.61,0-3.04-0.64-4.1-1.7 c-1.06-1.06-1.7-2.49-1.7-4.1V5.85c0-1.61,0.65-3.04,1.7-4.1c1.06-1.06,2.53-1.7,4.1-1.7h58.72C64.66,0,64.8,0,64.94,0 c0.64,0,1.29,0.28,1.75,0.69h0.09c0.09,0.05,0.14,0.09,0.23,0.18l29.99,30.36c0.51,0.51,0.88,1.2,0.88,1.98 c0,0.23-0.05,0.41-0.09,0.65V57L97.79,57z M67.52,27.97V8.94l21.43,21.7H70.19c-0.74,0-1.38-0.32-1.89-0.78 C67.84,29.4,67.52,28.71,67.52,27.97L67.52,27.97z"/></g></svg>